<svg id="Camada_1" data-name="Camada 1" xmlns="http://www.w3.org/2000/svg" viewBox="0 0 565.97 77.1"><defs><style>.cls-1{fill:#1e6b27;}.cls-2{fill:#35a538;}</style></defs><path class="cls-1" d="M1077,573c-2.85,6.21-8.35,6.21-13.88,5.71-4.14-.37-5.46,1.11-5.38,5.3.25,12.49.11,25,.08,37.48,0,6.8-2.25,9.23-9,10-11.42,1.31-11.42,1.31-11.42-10V579.63c-5.66-2.45-13,2-16.54-4-2-3.39-1.46-8.26-2.2-13.33h6.15c13.66,0,27.33.18,41-.09,5.49-.12,9.39,1.39,11.23,6.81Z" transform="translate(-511.03 -557.54)"/><path class="cls-2" d="M689.63,597.75c.27-8.79-.53-8.16,7.4-7.65a54.56,54.56,0,0,1,15.34,3c12.11,4.52,18.38,14.07,20.47,26.49.67,4,.55,8.15.83,12.24.12,1.89-.84,2.54-2.6,2.68-10.54.82-20-1.73-28.12-8.72C694.12,618.17,689.5,608.59,689.63,597.75Zm36.24,28.85c1-16.33-14.76-31.75-28.24-27.74C696,612.08,712.66,628.52,725.87,626.6Z" transform="translate(-511.03 -557.54)"/><path class="cls-1" d="M771.58,562.81c9.82-2,17.6-.2,23.53,8.65,4.64,6.92,10.67,12.91,17.26,18.94,0-5.39,0-10.79,0-16.19,0-9.19,2.73-11.91,11.86-11.93h7.84a6.37,6.37,0,0,1,.66,1.69c0,19.8.24,39.61-.15,59.41,0,2.43-2.7,6.07-5,7-4.73,1.82-9.94,1.49-13.72-2.92-5.53-6.43-10.94-13-16.42-19.44a20.73,20.73,0,0,0-5.81-5.11v13a71.9,71.9,0,0,1-.08,7.49c-.45,4.25-2.64,7.26-7.17,7.55-4.12.26-8.27,0-12.8,0Z" transform="translate(-511.03 -557.54)"/><path class="cls-1" d="M899.71,562.28c0,20.79,0,40.77,0,60.75,0,3.75-1.82,6.6-5.4,7.5-5,1.26-10,1.27-13.81-3.15-5.73-6.71-11.35-13.51-17-20.26-1.26-1.5-2.59-3-4.43-5a22.16,22.16,0,0,0-.8,3.71c-.08,3.66-.21,7.34,0,11,.81,14.84-3.79,14.76-17.63,14.22a3.83,3.83,0,0,1-2.59-2.7c-.15-21.78-.12-43.57-.12-65.57,9.15-1,17-1.4,22.87,7.41,5,7.49,11.53,14,18.54,20.5,0-6.08,0-12.15,0-18.22,0-7,3-10,10-10.13C892.55,562.23,895.85,562.28,899.71,562.28Z" transform="translate(-511.03 -557.54)"/><path class="cls-2" d="M739.46,632.24c-3.24-15.49,4.31-26.56,14.86-36.46-7.71,2.25-13.74,6.78-18.63,13.4-1.66-2.85-3.27-5.4-4.61-8.09-.26-.51.34-1.78.91-2.3a32.28,32.28,0,0,1,17.22-7.88c4.76-.72,9.58-.93,14.29-1.36C768.22,608.26,755.2,627.94,739.46,632.24Z" transform="translate(-511.03 -557.54)"/><path class="cls-2" d="M762,583c-3.76-.46-7.16-.86-10.54-1.32-1.71-.23-3.4-.53-5.1-.85-2.71-.51-3-1.21-1.5-3.61.34-.55.69-1.1,1.14-1.81a25.55,25.55,0,0,0-14.41-6.92c-13.07-1.77-23.09,3.15-30,14.33-1.06,1.71-2.2,2.44-4.21,2-1.67-.36-3.4-.43-5.63-.69.93-2.07,1.61-4,2.58-5.7a37.4,37.4,0,0,1,54.36-11.78c1.86,1.35,3.17,2.05,4.76-.17.78-1.08,1.9-1.14,2.5.22,2.06,4.64,4,9.32,6,14A8,8,0,0,1,762,583Z" transform="translate(-511.03 -557.54)"/><path class="cls-1" d="M988.94,631.7c-20.2.1-33.18-9.61-37.1-27.72-5.08-23.47,11.16-43.7,35.17-43.66a88.21,88.21,0,0,1,13.39,1,23.21,23.21,0,0,1,7.89,2.8c6.05,3.47,8.21,8.77,6,13.62-2.3,5.05-6.14,6-13.71,3.94-4.76-1.29-9.64-2.69-14.51-2.85-7.14-.22-11.68,3.87-13.63,10.81-3,10.81,1,21,9.75,23,3.73.87,7.91.39,11.78-.17,3.41-.49,6.64-2.08,10-3,4.15-1.07,7.62.09,9.78,4s1.76,7.58-1.3,11c-4.71,5.25-11,6.47-17.55,7.16A57,57,0,0,1,988.94,631.7Z" transform="translate(-511.03 -557.54)"/><path class="cls-1" d="M663,631.59c-16.43,0-28.86-7.65-34.26-21.06-5.63-14-2.28-30.9,8.06-40.63,8-7.57,18-10,28.56-9.28a53.28,53.28,0,0,1,17.31,3.81c6.68,2.9,8.57,8.84,5.76,13.76-2,3.52-4.87,5.39-9.13,4.17-4.46-1.29-8.89-2.74-13.43-3.72-7.07-1.53-13.84,1.13-17.14,6.34-3.8,6-3.59,17.13.44,22.87,3.43,4.88,10.53,7.21,17.47,5.53,4.35-1.06,8.63-2.4,13-3.58,4-1.08,6.8.66,8.76,4a7.87,7.87,0,0,1-.67,9.71c-5.51,6.87-13.37,7.38-21.19,8.08C665.37,631.68,664.2,631.59,663,631.59Z" transform="translate(-511.03 -557.54)"/><path class="cls-1" d="M925.14,588.24h19.41c.19,1.74.42,3,.44,4.3.23,11.14-.91,12.28-12.09,12.29a23.09,23.09,0,0,1-3,0c-3.82-.5-5.24.86-5.21,4.94s1.23,5.35,5.14,5.13c4.32-.26,8.66.1,13-.1,3.32-.15,4.52,1.22,4.21,4.4-.17,1.82,0,3.67-.13,5.49-.23,4-2.43,6.28-6.31,6.34q-16.49.27-33,0c-1.08,0-3.07-1.72-3.08-2.65-.18-21.79-.14-43.58-.14-65.74h42.25c0,3.77.72,7.85-.29,11.46-.55,2-3.85,3.82-6.24,4.44a26.22,26.22,0,0,1-9.44.15c-5.08-.6-6.57,1.66-5.84,6.26C925,585.76,925,586.58,925.14,588.24Z" transform="translate(-511.03 -557.54)"/><path class="cls-2" d="M610.08,592.77c9.26,7.63,9.79,16.64,7.57,26.22-1.64,7-6.84,10.83-13.55,11.49a68.9,68.9,0,0,1-19.3-.57c-12.86-2.44-15.15-8.21-8.72-20.09,4.28,1.56,8.51,3.46,12.94,4.61,2.6.67,6,1,8.16-.09a10.45,10.45,0,0,0,4.62-6.62c.63-3.18-2-5-5.22-5.42-2.28-.31-4.57-.55-7.51-.9a44.54,44.54,0,0,0,0-5.9c-.58-4.18.93-5.89,5.27-6.22,5.64-.42,7.92-3.75,6.78-8.67-1-4.3-4.82-6.07-9.9-4.57-.8.24-1.56.59-2.34.88-6.18,2.35-8.15,1.62-11.19-4.22-.84-1.61-1.59-3.27-2.55-5.26,10-6.26,20.2-9.49,31.7-5.2,11.92,4.45,15.26,18.63,6.62,28.1A22.81,22.81,0,0,1,610.08,592.77Z" transform="translate(-511.03 -557.54)"/><path class="cls-1" d="M567.15,627.86c-6.46,0-12.39.08-18.31-.07a3.76,3.76,0,0,1-2.72-1.69c-6.41-12.71-12.26-25.62-9-40.44,2.19-9.91,9.09-16.45,17-21.85,1.08-.73,4.52.39,5.71,1.7,8.9,9.85,6.81,26.42-4.52,34.16-3.81,2.61-3.87,4.35-1.3,7.73,4.22,5.55,8,11.42,12,17.19A16,16,0,0,1,567.15,627.86Z" transform="translate(-511.03 -557.54)"/><path class="cls-1" d="M534.54,627.69h-23V586.17c8,.23,14.5,3.05,18.71,10.08C534.78,603.78,536.79,618.39,534.54,627.69Z" transform="translate(-511.03 -557.54)"/><path class="cls-1" d="M511.1,557.54h37c-4.15,10.78-10.09,18.23-19.49,22.23-4.15,1.76-9,2.07-13.52,2.73-2.79.4-4.11-1-4-4.09C511.24,571.48,511.1,564.54,511.1,557.54Z" transform="translate(-511.03 -557.54)"/></svg>