<svg id="Camada_1" data-name="Camada 1" xmlns="http://www.w3.org/2000/svg" viewBox="0 0 107.71 73.35"><defs><style>.cls-1{fill:#1e6b27;}.cls-2{fill:#35a538;}</style></defs><path class="cls-1" d="M803.24,515.46" transform="translate(-677.44 -503.1)"/><path class="cls-1" d="M795.18,556.08" transform="translate(-677.44 -503.1)"/><path class="cls-2" d="M776.49,538.32c9.26,7.63,9.79,16.64,7.57,26.22-1.64,7.05-6.85,10.83-13.55,11.49a68.9,68.9,0,0,1-19.3-.57c-12.86-2.44-15.15-8.21-8.72-20.09,4.28,1.57,8.51,3.47,12.94,4.61,2.6.68,6,1,8.16-.08a10.5,10.5,0,0,0,4.62-6.63c.63-3.18-2-5-5.22-5.42-2.28-.31-4.57-.55-7.51-.89a44.68,44.68,0,0,0,0-5.91c-.58-4.18.93-5.89,5.27-6.22,5.64-.42,7.92-3.75,6.78-8.66-1-4.31-4.82-6.08-9.9-4.57-.8.23-1.56.58-2.34.88-6.18,2.34-8.15,1.61-11.19-4.23-.84-1.61-1.59-3.27-2.55-5.26,10-6.26,20.2-9.48,31.7-5.19,11.92,4.44,15.26,18.63,6.62,28.1A23.65,23.65,0,0,1,776.49,538.32Z" transform="translate(-677.44 -503.1)"/><path class="cls-1" d="M733.56,573.42c-6.46,0-12.39.07-18.31-.08a3.7,3.7,0,0,1-2.72-1.69c-6.41-12.71-12.26-25.62-9-40.44,2.19-9.91,9.09-16.44,17.05-21.85,1.08-.73,4.52.39,5.71,1.7,8.9,9.86,6.81,26.42-4.52,34.16-3.81,2.61-3.87,4.35-1.3,7.73,4.22,5.56,8,11.42,12,17.2A15.77,15.77,0,0,1,733.56,573.42Z" transform="translate(-677.44 -503.1)"/><path class="cls-1" d="M701,573.24H678V531.72c8,.24,14.5,3,18.71,10.08C701.19,549.33,703.2,564,701,573.24Z" transform="translate(-677.44 -503.1)"/><path class="cls-1" d="M677.51,503.1h37c-4.15,10.77-10.1,18.23-19.49,22.22-4.15,1.77-9,2.08-13.52,2.73-2.79.4-4.11-1-4-4.08C677.65,517,677.51,510.09,677.51,503.1Z" transform="translate(-677.44 -503.1)"/></svg>