<svg id="Camada_1" data-name="Camada 1" xmlns="http://www.w3.org/2000/svg" viewBox="0 0 74.85 75.04"><defs><style>.cls-1{fill:#35a538;}</style></defs><path class="cls-1" d="M856,543.31c.27-8.8-.53-8.17,7.4-7.65a54.2,54.2,0,0,1,15.34,3c12.11,4.52,18.38,14.08,20.47,26.49.67,4,.55,8.16.83,12.24.12,1.9-.84,2.54-2.6,2.68-10.54.82-20-1.73-28.12-8.71C860.53,563.72,855.91,554.14,856,543.31Zm36.24,28.84c1-16.33-14.76-31.75-28.24-27.74C862.44,557.63,879.07,574.08,892.28,572.15Z" transform="translate(-856.04 -505.16)"/><path class="cls-1" d="M905.87,577.8c-3.24-15.5,4.31-26.57,14.86-36.46-7.71,2.24-13.74,6.77-18.63,13.4-1.66-2.85-3.27-5.41-4.61-8.1-.26-.5.34-1.78.91-2.3a32.35,32.35,0,0,1,17.22-7.88c4.76-.71,9.58-.93,14.29-1.35C934.63,553.82,921.61,573.49,905.87,577.8Z" transform="translate(-856.04 -505.16)"/><path class="cls-1" d="M928.42,528.59c-3.76-.47-7.16-.87-10.54-1.33-1.71-.23-3.4-.53-5.1-.85-2.71-.51-3-1.21-1.5-3.61.34-.55.69-1.09,1.14-1.8A25.56,25.56,0,0,0,898,514.07c-13.07-1.77-23.09,3.15-30,14.33-1.06,1.72-2.2,2.44-4.21,2-1.67-.36-3.4-.44-5.63-.7.93-2.07,1.61-4,2.58-5.7a37.42,37.42,0,0,1,54.36-11.78c1.86,1.35,3.17,2,4.76-.17.78-1.08,1.9-1.14,2.5.22,2.06,4.65,4,9.32,6,14A8,8,0,0,1,928.42,528.59Z" transform="translate(-856.04 -505.16)"/></svg>